<mxfile host="Electron" agent="Mozilla/5.0 (Windows NT 10.0; Win64; x64) AppleWebKit/537.36 (KHTML, like Gecko) draw.io/24.7.8 Chrome/128.0.6613.36 Electron/32.0.1 Safari/537.36" version="24.7.8">
  <diagram name="第 1 页" id="K5T117zkHWTxyYRvS-6k">
    <mxGraphModel dx="683" dy="402" grid="1" gridSize="10" guides="1" tooltips="1" connect="1" arrows="1" fold="1" page="1" pageScale="1" pageWidth="827" pageHeight="1169" math="0" shadow="0">
      <root>
        <mxCell id="0" />
        <mxCell id="aBHUhjm1t-qLO0Yu9kFi-38" value="背景" style="" parent="0" />
        <mxCell id="aBHUhjm1t-qLO0Yu9kFi-41" value="" style="rounded=0;whiteSpace=wrap;html=1;dashed=1;dashPattern=8 8;fillColor=#A6A6A6;" parent="aBHUhjm1t-qLO0Yu9kFi-38" vertex="1">
          <mxGeometry x="180" y="120" width="160" height="380" as="geometry" />
        </mxCell>
        <mxCell id="aBHUhjm1t-qLO0Yu9kFi-43" value="" style="rounded=0;whiteSpace=wrap;html=1;dashed=1;dashPattern=8 8;fillColor=#A6A6A6;" parent="aBHUhjm1t-qLO0Yu9kFi-38" vertex="1">
          <mxGeometry x="460" y="120" width="160" height="380" as="geometry" />
        </mxCell>
        <mxCell id="aBHUhjm1t-qLO0Yu9kFi-48" value="" style="endArrow=classic;html=1;rounded=0;exitX=1;exitY=0.5;exitDx=0;exitDy=0;entryX=0;entryY=0.5;entryDx=0;entryDy=0;" parent="aBHUhjm1t-qLO0Yu9kFi-38" source="aBHUhjm1t-qLO0Yu9kFi-8" target="aBHUhjm1t-qLO0Yu9kFi-17" edge="1">
          <mxGeometry relative="1" as="geometry">
            <mxPoint x="380" y="180" as="sourcePoint" />
            <mxPoint x="480" y="180" as="targetPoint" />
          </mxGeometry>
        </mxCell>
        <mxCell id="aBHUhjm1t-qLO0Yu9kFi-49" value="备份、更新" style="edgeLabel;resizable=0;html=1;;align=center;verticalAlign=middle;labelBackgroundColor=#A6A6A6;" parent="aBHUhjm1t-qLO0Yu9kFi-48" connectable="0" vertex="1">
          <mxGeometry relative="1" as="geometry" />
        </mxCell>
        <mxCell id="aBHUhjm1t-qLO0Yu9kFi-51" value="" style="endArrow=classic;html=1;rounded=0;exitX=0;exitY=1;exitDx=0;exitDy=0;entryX=1;entryY=0;entryDx=0;entryDy=0;" parent="aBHUhjm1t-qLO0Yu9kFi-38" source="aBHUhjm1t-qLO0Yu9kFi-17" target="aBHUhjm1t-qLO0Yu9kFi-24" edge="1">
          <mxGeometry relative="1" as="geometry">
            <mxPoint x="420" y="280" as="sourcePoint" />
            <mxPoint x="350" y="360" as="targetPoint" />
          </mxGeometry>
        </mxCell>
        <mxCell id="aBHUhjm1t-qLO0Yu9kFi-52" value="还原" style="edgeLabel;resizable=0;html=1;;align=center;verticalAlign=middle;labelBackgroundColor=#A6A6A6;" parent="aBHUhjm1t-qLO0Yu9kFi-51" connectable="0" vertex="1">
          <mxGeometry relative="1" as="geometry">
            <mxPoint x="40" y="-20" as="offset" />
          </mxGeometry>
        </mxCell>
        <mxCell id="aBHUhjm1t-qLO0Yu9kFi-53" value="" style="endArrow=classic;html=1;rounded=0;exitX=0.5;exitY=1;exitDx=0;exitDy=0;entryX=0.5;entryY=0;entryDx=0;entryDy=0;" parent="aBHUhjm1t-qLO0Yu9kFi-38" source="aBHUhjm1t-qLO0Yu9kFi-8" target="aBHUhjm1t-qLO0Yu9kFi-28" edge="1">
          <mxGeometry relative="1" as="geometry">
            <mxPoint x="330" y="250" as="sourcePoint" />
            <mxPoint x="370" y="340" as="targetPoint" />
          </mxGeometry>
        </mxCell>
        <mxCell id="aBHUhjm1t-qLO0Yu9kFi-54" value="备份、更新" style="edgeLabel;resizable=0;html=1;;align=center;verticalAlign=middle;labelBackgroundColor=#A6A6A6;" parent="aBHUhjm1t-qLO0Yu9kFi-53" connectable="0" vertex="1">
          <mxGeometry relative="1" as="geometry">
            <mxPoint as="offset" />
          </mxGeometry>
        </mxCell>
        <mxCell id="aBHUhjm1t-qLO0Yu9kFi-55" value="" style="endArrow=open;html=1;rounded=0;exitX=1;exitY=1;exitDx=0;exitDy=0;entryX=0;entryY=0;entryDx=0;entryDy=0;dashed=1;endFill=0;" parent="aBHUhjm1t-qLO0Yu9kFi-38" source="aBHUhjm1t-qLO0Yu9kFi-8" target="aBHUhjm1t-qLO0Yu9kFi-31" edge="1">
          <mxGeometry relative="1" as="geometry">
            <mxPoint x="340" y="260" as="sourcePoint" />
            <mxPoint x="500" y="260" as="targetPoint" />
          </mxGeometry>
        </mxCell>
        <mxCell id="aBHUhjm1t-qLO0Yu9kFi-56" value="解包" style="edgeLabel;resizable=0;html=1;;align=center;verticalAlign=middle;labelBackgroundColor=#A6A6A6;" parent="aBHUhjm1t-qLO0Yu9kFi-55" connectable="0" vertex="1">
          <mxGeometry relative="1" as="geometry">
            <mxPoint x="-40" y="-20" as="offset" />
          </mxGeometry>
        </mxCell>
        <mxCell id="aBHUhjm1t-qLO0Yu9kFi-57" value="" style="endArrow=open;html=1;rounded=0;exitX=1;exitY=0.5;exitDx=0;exitDy=0;entryX=0;entryY=0.5;entryDx=0;entryDy=0;dashed=1;endFill=0;" parent="aBHUhjm1t-qLO0Yu9kFi-38" source="aBHUhjm1t-qLO0Yu9kFi-24" target="aBHUhjm1t-qLO0Yu9kFi-31" edge="1">
          <mxGeometry relative="1" as="geometry">
            <mxPoint x="350" y="270" as="sourcePoint" />
            <mxPoint x="510" y="270" as="targetPoint" />
          </mxGeometry>
        </mxCell>
        <mxCell id="aBHUhjm1t-qLO0Yu9kFi-58" value="解包" style="edgeLabel;resizable=0;html=1;;align=center;verticalAlign=middle;labelBackgroundColor=#A6A6A6;" parent="aBHUhjm1t-qLO0Yu9kFi-57" connectable="0" vertex="1">
          <mxGeometry relative="1" as="geometry" />
        </mxCell>
        <mxCell id="aBHUhjm1t-qLO0Yu9kFi-59" value="" style="endArrow=open;html=1;rounded=0;exitX=0.5;exitY=1;exitDx=0;exitDy=0;entryX=0.5;entryY=0;entryDx=0;entryDy=0;dashed=1;endFill=0;" parent="aBHUhjm1t-qLO0Yu9kFi-38" source="aBHUhjm1t-qLO0Yu9kFi-17" target="aBHUhjm1t-qLO0Yu9kFi-31" edge="1">
          <mxGeometry relative="1" as="geometry">
            <mxPoint x="330" y="430" as="sourcePoint" />
            <mxPoint x="490" y="430" as="targetPoint" />
          </mxGeometry>
        </mxCell>
        <mxCell id="aBHUhjm1t-qLO0Yu9kFi-60" value="解包" style="edgeLabel;resizable=0;html=1;;align=center;verticalAlign=middle;labelBackgroundColor=#A6A6A6;" parent="aBHUhjm1t-qLO0Yu9kFi-59" connectable="0" vertex="1">
          <mxGeometry relative="1" as="geometry">
            <mxPoint as="offset" />
          </mxGeometry>
        </mxCell>
        <mxCell id="aBHUhjm1t-qLO0Yu9kFi-44" value="储存在本地的壁纸" style="text;html=1;align=center;verticalAlign=middle;whiteSpace=wrap;rounded=0;" parent="aBHUhjm1t-qLO0Yu9kFi-38" vertex="1">
          <mxGeometry x="460" y="120" width="160" height="30" as="geometry" />
        </mxCell>
        <mxCell id="aBHUhjm1t-qLO0Yu9kFi-42" value="WallpaperEngine&lt;div&gt;显示的壁纸&lt;/div&gt;" style="text;html=1;align=center;verticalAlign=middle;whiteSpace=wrap;rounded=0;" parent="aBHUhjm1t-qLO0Yu9kFi-38" vertex="1">
          <mxGeometry x="180" y="120" width="160" height="30" as="geometry" />
        </mxCell>
        <mxCell id="1" value="订阅壁纸" style="locked=1;" parent="0" />
        <mxCell id="aBHUhjm1t-qLO0Yu9kFi-14" value="" style="group" parent="1" vertex="1" connectable="0">
          <mxGeometry x="200" y="160" width="120" height="130" as="geometry" />
        </mxCell>
        <mxCell id="aBHUhjm1t-qLO0Yu9kFi-8" value="" style="rounded=1;whiteSpace=wrap;html=1;arcSize=6;movable=1;resizable=1;rotatable=1;deletable=1;editable=1;locked=0;connectable=1;" parent="aBHUhjm1t-qLO0Yu9kFi-14" vertex="1">
          <mxGeometry y="10" width="120" height="120" as="geometry" />
        </mxCell>
        <mxCell id="aBHUhjm1t-qLO0Yu9kFi-7" value="壁纸" style="rounded=1;whiteSpace=wrap;html=1;arcSize=10;movable=1;resizable=1;rotatable=1;deletable=1;editable=1;locked=0;connectable=1;" parent="aBHUhjm1t-qLO0Yu9kFi-14" vertex="1">
          <mxGeometry x="15" y="40" width="90" height="20" as="geometry" />
        </mxCell>
        <mxCell id="aBHUhjm1t-qLO0Yu9kFi-11" value="壁纸" style="rounded=1;whiteSpace=wrap;html=1;arcSize=10;movable=1;resizable=1;rotatable=1;deletable=1;editable=1;locked=0;connectable=1;" parent="aBHUhjm1t-qLO0Yu9kFi-14" vertex="1">
          <mxGeometry x="15" y="70" width="90" height="20" as="geometry" />
        </mxCell>
        <mxCell id="aBHUhjm1t-qLO0Yu9kFi-12" value="壁纸" style="rounded=1;whiteSpace=wrap;html=1;arcSize=10;movable=1;resizable=1;rotatable=1;deletable=1;editable=1;locked=0;connectable=1;" parent="aBHUhjm1t-qLO0Yu9kFi-14" vertex="1">
          <mxGeometry x="15" y="100" width="90" height="20" as="geometry" />
        </mxCell>
        <mxCell id="aBHUhjm1t-qLO0Yu9kFi-13" value="订阅壁纸" style="text;html=1;align=center;verticalAlign=middle;whiteSpace=wrap;rounded=0;" parent="aBHUhjm1t-qLO0Yu9kFi-14" vertex="1">
          <mxGeometry y="10" width="120" height="20" as="geometry" />
        </mxCell>
        <mxCell id="aBHUhjm1t-qLO0Yu9kFi-9" value="本地备份" style="locked=1;" parent="0" />
        <mxCell id="aBHUhjm1t-qLO0Yu9kFi-16" value="" style="group" parent="aBHUhjm1t-qLO0Yu9kFi-9" vertex="1" connectable="0">
          <mxGeometry x="480" y="160" width="120" height="130" as="geometry" />
        </mxCell>
        <mxCell id="aBHUhjm1t-qLO0Yu9kFi-17" value="" style="rounded=1;whiteSpace=wrap;html=1;arcSize=6;movable=1;resizable=1;rotatable=1;deletable=1;editable=1;locked=0;connectable=1;" parent="aBHUhjm1t-qLO0Yu9kFi-16" vertex="1">
          <mxGeometry y="10" width="120" height="120" as="geometry" />
        </mxCell>
        <mxCell id="aBHUhjm1t-qLO0Yu9kFi-18" value="壁纸" style="rounded=1;whiteSpace=wrap;html=1;arcSize=10;movable=1;resizable=1;rotatable=1;deletable=1;editable=1;locked=0;connectable=1;" parent="aBHUhjm1t-qLO0Yu9kFi-16" vertex="1">
          <mxGeometry x="15" y="40" width="90" height="20" as="geometry" />
        </mxCell>
        <mxCell id="aBHUhjm1t-qLO0Yu9kFi-19" value="壁纸" style="rounded=1;whiteSpace=wrap;html=1;arcSize=10;movable=1;resizable=1;rotatable=1;deletable=1;editable=1;locked=0;connectable=1;" parent="aBHUhjm1t-qLO0Yu9kFi-16" vertex="1">
          <mxGeometry x="15" y="70" width="90" height="20" as="geometry" />
        </mxCell>
        <mxCell id="aBHUhjm1t-qLO0Yu9kFi-20" value="壁纸" style="rounded=1;whiteSpace=wrap;html=1;arcSize=10;movable=1;resizable=1;rotatable=1;deletable=1;editable=1;locked=0;connectable=1;" parent="aBHUhjm1t-qLO0Yu9kFi-16" vertex="1">
          <mxGeometry x="15" y="100" width="90" height="20" as="geometry" />
        </mxCell>
        <mxCell id="aBHUhjm1t-qLO0Yu9kFi-21" value="本地备份壁纸" style="text;html=1;align=center;verticalAlign=middle;whiteSpace=wrap;rounded=0;" parent="aBHUhjm1t-qLO0Yu9kFi-16" vertex="1">
          <mxGeometry x="10" y="10" width="100" height="20" as="geometry" />
        </mxCell>
        <mxCell id="aBHUhjm1t-qLO0Yu9kFi-22" value="官方备份" style="locked=1;" parent="0" />
        <mxCell id="aBHUhjm1t-qLO0Yu9kFi-23" value="" style="group" parent="aBHUhjm1t-qLO0Yu9kFi-22" vertex="1" connectable="0">
          <mxGeometry x="200" y="340" width="120" height="130" as="geometry" />
        </mxCell>
        <mxCell id="aBHUhjm1t-qLO0Yu9kFi-24" value="" style="rounded=1;whiteSpace=wrap;html=1;arcSize=6;movable=1;resizable=1;rotatable=1;deletable=1;editable=1;locked=0;connectable=1;" parent="aBHUhjm1t-qLO0Yu9kFi-23" vertex="1">
          <mxGeometry y="10" width="120" height="120" as="geometry" />
        </mxCell>
        <mxCell id="aBHUhjm1t-qLO0Yu9kFi-25" value="壁纸" style="rounded=1;whiteSpace=wrap;html=1;arcSize=10;movable=1;resizable=1;rotatable=1;deletable=1;editable=1;locked=0;connectable=1;" parent="aBHUhjm1t-qLO0Yu9kFi-23" vertex="1">
          <mxGeometry x="15" y="40" width="90" height="20" as="geometry" />
        </mxCell>
        <mxCell id="aBHUhjm1t-qLO0Yu9kFi-26" value="壁纸" style="rounded=1;whiteSpace=wrap;html=1;arcSize=10;movable=1;resizable=1;rotatable=1;deletable=1;editable=1;locked=0;connectable=1;" parent="aBHUhjm1t-qLO0Yu9kFi-23" vertex="1">
          <mxGeometry x="15" y="70" width="90" height="20" as="geometry" />
        </mxCell>
        <mxCell id="aBHUhjm1t-qLO0Yu9kFi-27" value="壁纸" style="rounded=1;whiteSpace=wrap;html=1;arcSize=10;movable=1;resizable=1;rotatable=1;deletable=1;editable=1;locked=0;connectable=1;" parent="aBHUhjm1t-qLO0Yu9kFi-23" vertex="1">
          <mxGeometry x="15" y="100" width="90" height="20" as="geometry" />
        </mxCell>
        <mxCell id="aBHUhjm1t-qLO0Yu9kFi-28" value="官方备份壁纸" style="text;html=1;align=center;verticalAlign=middle;whiteSpace=wrap;rounded=0;" parent="aBHUhjm1t-qLO0Yu9kFi-23" vertex="1">
          <mxGeometry x="10" y="10" width="100" height="20" as="geometry" />
        </mxCell>
        <mxCell id="aBHUhjm1t-qLO0Yu9kFi-29" value="解包壁纸" style="locked=1;" parent="0" />
        <mxCell id="aBHUhjm1t-qLO0Yu9kFi-30" value="" style="group" parent="aBHUhjm1t-qLO0Yu9kFi-29" vertex="1" connectable="0">
          <mxGeometry x="480" y="340" width="120" height="130" as="geometry" />
        </mxCell>
        <mxCell id="aBHUhjm1t-qLO0Yu9kFi-31" value="" style="rounded=1;whiteSpace=wrap;html=1;arcSize=6;movable=1;resizable=1;rotatable=1;deletable=1;editable=1;locked=0;connectable=1;" parent="aBHUhjm1t-qLO0Yu9kFi-30" vertex="1">
          <mxGeometry y="10" width="120" height="120" as="geometry" />
        </mxCell>
        <mxCell id="aBHUhjm1t-qLO0Yu9kFi-32" value="壁纸" style="rounded=1;whiteSpace=wrap;html=1;arcSize=10;movable=1;resizable=1;rotatable=1;deletable=1;editable=1;locked=0;connectable=1;" parent="aBHUhjm1t-qLO0Yu9kFi-30" vertex="1">
          <mxGeometry x="15" y="40" width="90" height="20" as="geometry" />
        </mxCell>
        <mxCell id="aBHUhjm1t-qLO0Yu9kFi-33" value="壁纸" style="rounded=1;whiteSpace=wrap;html=1;arcSize=10;movable=1;resizable=1;rotatable=1;deletable=1;editable=1;locked=0;connectable=1;" parent="aBHUhjm1t-qLO0Yu9kFi-30" vertex="1">
          <mxGeometry x="15" y="70" width="90" height="20" as="geometry" />
        </mxCell>
        <mxCell id="aBHUhjm1t-qLO0Yu9kFi-34" value="壁纸" style="rounded=1;whiteSpace=wrap;html=1;arcSize=10;movable=1;resizable=1;rotatable=1;deletable=1;editable=1;locked=0;connectable=1;" parent="aBHUhjm1t-qLO0Yu9kFi-30" vertex="1">
          <mxGeometry x="15" y="100" width="90" height="20" as="geometry" />
        </mxCell>
        <mxCell id="aBHUhjm1t-qLO0Yu9kFi-35" value="解包壁纸" style="text;html=1;align=center;verticalAlign=middle;whiteSpace=wrap;rounded=0;" parent="aBHUhjm1t-qLO0Yu9kFi-30" vertex="1">
          <mxGeometry x="10" y="10" width="100" height="20" as="geometry" />
        </mxCell>
      </root>
    </mxGraphModel>
  </diagram>
</mxfile>
